<?xml version="1.0" standalone="no"?>
<!DOCTYPE svg PUBLIC "-//W3C//DTD SVG 1.1//EN" "http://www.w3.org/Graphics/SVG/1.1/DTD/svg11.dtd" >
<svg>
<metadata>
Created by FontForge 20120731 at Fri Apr 14 11:59:43 2017
 By www-data
From the WSI-Font Collection.  Copyright  (c)1994 Weatherly Systems, Inc.  All Rights Reserved.  Redistribution strictly prohibited.
</metadata>
<defs>
<font id="Desdemona" horiz-adv-x="524" >
  <font-face 
    font-family="Dustine Solid"
    font-weight="400"
    font-stretch="normal"
    units-per-em="1000"
    panose-1="4 2 5 5 2 14 3 4 5 4"
    ascent="800"
    descent="-200"
    x-height="750"
    cap-height="750"
    bbox="-16 -179 681 800"
    underline-thickness="20"
    underline-position="-123"
    unicode-range="U+0041-007A"
  />
<missing-glyph horiz-adv-x="500" 
d="M31 0v800h438v-800h-438zM438 31v738h-376v-738h376z" />
    <glyph glyph-name=".notdef" horiz-adv-x="500" 
d="M31 0v800h438v-800h-438zM438 31v738h-376v-738h376z" />
    <glyph glyph-name=".null" horiz-adv-x="0" 
 />
    <glyph glyph-name="nonmarkingreturn" horiz-adv-x="500" 
 />
    <glyph glyph-name="space" horiz-adv-x="500" 
 />
    <glyph glyph-name="A" unicode="A" horiz-adv-x="530" 
d="M475 0h-136q14 20 18 46l2 42v140h-218v-43l-1 -44q0 -52 4.5 -86t15.5 -55h-140q15 21 21 44q7 21 7 44v113q0 130 54 258.5t148 207.5q98 85 194 85h13l18 -2q-11 -20 -15 -41l-4 -44v-577q0 -24 4 -45.5t15 -42.5zM359 321v320q-52 -27 -98 -90q-40 -54 -70 -122
q-25 -59 -35 -108h203z" />
    <glyph glyph-name="B" unicode="B" horiz-adv-x="536" 
d="M517 408q0 -94 -75 -193q-70 -91 -180 -153t-208 -62q14 20 18 46l2 42v574v19v13q-2 7 -2 10q-4 26 -18 46h292q54 0 86 -18q40 -22 40 -75q0 -31 -16.5 -54t-51.5 -38q46 -12 79.5 -55t33.5 -102zM364 638q0 11 -9 17t-24 6h-160v-50h160q14 0 23.5 8t9.5 19zM409 396
q0 52 -35 87t-88 35h-115v-382q47 11 102.5 50.5t93.5 92.5q42 60 42 117z" />
    <glyph glyph-name="C" unicode="C" 
d="M494 -6q-116 28 -218 95q-109 73 -170 172q-68 112 -68 240q0 109 66 182t165 73l56 -1l88 -5v-131q-36 23 -64 32t-65 9q-63 0 -103.5 -45.5t-40.5 -119.5q0 -104 66 -200q57 -82 145 -136q83 -49 143 -49v-116z" />
    <glyph glyph-name="D" unicode="D" horiz-adv-x="560" 
d="M522 258q0 -122 -57.5 -190t-152.5 -68h-258q14 20 18 46l2 42v579v19v13q-2 7 -2 10q-4 27 -18 48q104 -9 214 -81t179 -181q75 -116 75 -237zM423 257q0 111 -82 218q-76 100 -170 132v-509h124q56 0 92 40t36 119z" />
    <glyph glyph-name="E" unicode="E" horiz-adv-x="517" 
d="M491 0h-437q14 20 18 46l2 42v574v19v13q-2 7 -2 10q-4 26 -18 46h395v-124l-39 21q-18 6 -49 6h-190v-40h250v-97h-250v-419h232q34 0 57 10l31 17v-124z" />
    <glyph glyph-name="F" unicode="F" horiz-adv-x="474" 
d="M449 626q-27 16 -39 20q-18 7 -49 7h-190v-40h238v-97h-238v-428q0 -27 7 -45q4 -12 8 -20.5t12 -22.5h-144q14 20 18 46l2 42v574v19v13q-2 7 -2 10q-4 26 -18 46h395v-124z" />
    <glyph glyph-name="G" unicode="G" horiz-adv-x="573" 
d="M522 -12q-200 55 -338 198q-146 152 -146 333q0 108 64.5 169.5t166.5 61.5h172v-136q-76 46 -149 46q-63 0 -108.5 -40.5t-45.5 -112.5q0 -101 87 -217q82 -107 177 -149v319v19v13q-2 7 -2 10q-4 26 -18 46h135q-11 -20 -16 -47l-2 -41v-368q0 -33 12 -72z" />
    <glyph glyph-name="H" unicode="H" horiz-adv-x="566" 
d="M512 750q-11 -18 -16 -42l-4 -46v-574q0 -24 4 -45.5t15 -42.5h-136q14 20 18 46l2 42v409q-13 14 -26 21t-29 7q-21 0 -64 -17q-23 -9 -40 -9l-34 3q-17 3 -31 9v-423q0 -24 4 -45.5t15 -42.5h-136q14 20 18 46l2 42v574v19v13q-2 7 -2 10q-4 26 -18 46h137
q-12 -19 -16 -41l-4 -47v-58l23 -11l25 -3q21 0 47 8q54 19 74 19q35 0 55 -16v61v19v13q-2 7 -2 10q-4 26 -18 46h137z" />
    <glyph glyph-name="I" unicode="I" horiz-adv-x="245" 
d="M190 0h-136q14 20 18 46l2 42v574v19v13q-2 7 -2 10q-4 26 -18 46h136q-11 -21 -15 -43l-4 -45v-574q0 -24 4 -45.5t15 -42.5z" />
    <glyph glyph-name="J" unicode="J" horiz-adv-x="446" 
d="M422 750q-11 -21 -15 -43l-4 -45v-286q0 -114 -58 -203q-51 -81 -142 -129q-85 -44 -177 -44v126l29 -9l28 -3q87 0 152 77q71 85 71 218v253v19v13q-2 7 -2 10q-4 26 -18 46h136z" />
    <glyph glyph-name="K" unicode="K" horiz-adv-x="520" 
d="M513 750l-68 -52l-47 -41l-159 -137l55 -114l81 -170l57 -119l36 -60l43 -57h-168l1 13v9q0 31 -5 53.5t-13 37.5l-155 322v-347l3 -42q3 -17 14 -46h-132q11 22 16 50l2 38v574v17q0 9 -2.5 28t-15.5 43h132q-3 -6 -7.5 -22t-6.5 -24l-3 -42v-82l64 59l53 50
q10 9 13 21.5t3 39.5h209z" />
    <glyph glyph-name="L" unicode="L" horiz-adv-x="460" 
d="M444 0h-390q14 20 18 46l2 42v574v19v13q-2 7 -2 10q-4 26 -18 46h144q-27 -48 -27 -88v-565h185q40 0 88 27v-124z" />
    <glyph glyph-name="M" unicode="M" horiz-adv-x="691" 
d="M681 0h-156q13 22 17.5 45.5t4.5 42.5l-43 558l-162 -134l-155 131l-43 -555q0 -13 1 -20t3.5 -19.5t6 -23t11.5 -25.5h-156q18 26 27.5 47.5t9.5 41.5l19 214l19 232l8 127v19v13q-2 7 -2 10q-4 26 -18 46h167q3 -14 10 -25l15 -20l77 -73l83 72q18 16 29 46h168
q-12 -18 -17 -40l-3 -48l7 -128l17 -229l18 -216q0 -19 10 -40z" />
    <glyph glyph-name="N" unicode="N" horiz-adv-x="563" 
d="M508 0h-136q14 20 18 46l2 42v183l-221 308v-491q0 -24 4 -45.5t15 -42.5h-136q14 20 18 46l2 42v574v19v13q-2 7 -2 10q-4 26 -18 46h156q-3 -9 -5 -28q0 -15 4.5 -27.5t10.5 -20.5l65 -92l63 -88l44 -61v229v19v13q-2 7 -2 10q-4 26 -18 46h136q-11 -21 -15 -43l-4 -45
v-574q0 -24 4 -45.5t15 -42.5z" />
    <glyph glyph-name="O" unicode="O" horiz-adv-x="670" 
d="M641 378q0 -174 -84 -276t-229 -102q-135 0 -217 99t-82 264q0 188 80.5 288t227.5 100q143 0 223.5 -97.5t80.5 -275.5zM545 386q0 122 -55 198q-58 79 -159 79t-156 -88q-50 -80 -50 -206q0 -116 52 -193q57 -84 154 -84q102 0 161 90q53 82 53 204z" />
    <glyph glyph-name="P" unicode="P" horiz-adv-x="499" 
d="M484 680q0 -48 -33 -96l-253 -377v165l22 32l56 82l72 106l13 24q6 14 6 26t-8 15.5t-30 3.5h-158v-573q0 -24 4 -45.5t15 -42.5h-136q14 20 18 46l2 42v574v19v13q-2 7 -2 10q-4 26 -18 46h341q41 0 65 -17t24 -53z" />
    <glyph glyph-name="Q" unicode="Q" horiz-adv-x="565" 
d="M543 41l-85 -65l-53 54q-50 -36 -127 -36q-125 0 -188 101q-52 86 -52 217q0 54 7 102.5t22 103.5q32 110 85 174q60 73 135 73q71 0 129 -71q25 -31 46 -73t36 -96q29 -101 29 -201q0 -58 -12 -113t-39 -105zM428 324q0 117 -44 231t-103 114q-62 0 -105 -125
q-39 -113 -39 -238q0 -87 34 -146q40 -70 110 -70q17 0 29 4l28 10l-122 131l68 59l117 -115q12 27 20 70q3 15 5 37.5t2 37.5z" />
    <glyph glyph-name="R" unicode="R" 
d="M514 0h-156q4 7 8 23l3 24l-3 28l-7 23l-39 99l-36 97l-24 65l-89 -118v-153q0 -24 4 -45.5t15 -42.5h-136q14 20 18 46l2 42v574v19v13q-2 7 -2 10q-4 26 -18 46h326q41 0 65 -17t24 -53q0 -23 -9 -42.5t-13 -26t-17 -24.5l-53 -74l-44 -59l25 -73l46 -132l49 -138
q10 -26 29 -60q7 -12 12.5 -21.5t19.5 -29.5zM332 642q0 12 -8 15.5t-30 3.5h-123v-257l39 51l52 70l51 68l14 25q5 13 5 24z" />
    <glyph glyph-name="S" unicode="S" horiz-adv-x="496" 
d="M475 216q0 -102 -68.5 -164.5t-167.5 -62.5q-44 0 -75.5 7.5t-45.5 12t-37.5 15t-75.5 39.5l79 110q24 -38 66 -61q22 -10 44 -16t45 -6q57 0 93.5 33.5t36.5 98.5q0 39 -15 71t-43 65q-21 22 -58 55l-73 64q-19 18 -34 35.5t-25 32.5q-24 39 -24 81q0 69 43 106
q38 32 99 32q44 0 76.5 -9t70.5 -33l-63 -86l-35 24q-17 10 -37 10q-52 0 -52 -40q0 -25 47 -70l95 -87q20 -18 36 -36q13 -14 29 -34q31 -40 50 -86t19 -101z" />
    <glyph glyph-name="T" unicode="T" horiz-adv-x="480" 
d="M485 767q0 -46 -36.5 -78.5t-83.5 -32.5h-80v-568q0 -24 4 -45.5t15 -42.5h-136q14 20 18 46l2 42v571h-91q-38 0 -88 -27v118h383q18 0 27 1t28 6z" />
    <glyph glyph-name="U" unicode="U" horiz-adv-x="563" 
d="M510 -9q-116 25 -232 126q-104 91 -172 213t-68 218v26.5t4 34.5t5 28.5t7 15.5q7 16 10 33l4 30l-1 17q0 8 -4 17h159q-38 -42 -58 -78q-24 -45 -24 -94q0 -85 41 -176q36 -78 98 -147q57 -63 113 -91v498v19v13q-2 7 -2 10q-4 26 -18 46h136q-11 -21 -15 -43l-4 -45
v-580q0 -27 3.5 -46.5t17.5 -44.5z" />
    <glyph glyph-name="V" unicode="V" horiz-adv-x="464" 
d="M463 750q-14 -17 -25 -47l-13 -44l-34 -173l-41 -207l-35 -168l-5 -30l-4 -39q0 -25 7 -42h-173q5 8 8 25l3 30q0 19 -2 28l-4 28l-30 163l-41 210l-35 175q-6 33 -16 54q-9 23 -22 37h155q-7 -13 -12 -35l-4 -43l1 -19l2 -16l24 -123l39 -198q24 -121 26 -143l25 139
l40 202l25 123l4 41q0 23 -3.5 41t-11.5 31h152z" />
    <glyph glyph-name="W" unicode="W" horiz-adv-x="657" 
d="M663 750l-14 -20t-15 -26q-11 -23 -16 -45l-117 -548l-4 -26l-2 -30l3 -30q2 -11 3 -14.5t5 -10.5h-156l5 20l2 24l-3 35q0 7 -2 16t-4 16l-23 129l-23 -129l-6 -32l-3 -36q0 -25 7 -43h-156q5 8 8 25l3 30q0 19 -2 28l-4 28l-110 548q-3 20 -16 45q-9 22 -29 46h162
q-7 -13 -12 -35l-4 -43l1 -19l2 -17l24 -128l58 -332l53 256l-67 318h98l4 -23l13 -92l20 115h96l-70 -319l49 -256q4 32 25 132l42 201l27 133l2 31q0 23 -3.5 43t-12.5 35h162z" />
    <glyph glyph-name="X" unicode="X" horiz-adv-x="486" 
d="M475 0h-157l6 19l1 24q0 18 -2 28l-7 23l-37 93l-36 99l-36 -100l-37 -93q-9 -20 -9 -51q0 -25 7 -42h-157q20 22 37 52l21 44l122 306l-99 258q-5 15 -10 25q-1 2 -12 19q-14 24 -36 46h154l-5 -18l-1 -19q0 -26 9 -49l54 -146l53 146q7 25 7 50l-2 18q-2 12 -5 18h155
q-20 -22 -36 -45.5t-23 -44.5l-99 -257l121 -307l21 -43q7 -12 17 -26t21 -27z" />
    <glyph glyph-name="Y" unicode="Y" horiz-adv-x="452" 
d="M465 750q-18 -8 -53 -38l-46 -44l-50 -55l-43 -51v-474q0 -24 4 -45.5t15 -42.5h-136q14 20 18 46l2 42v469l-44 50l-48 51l-40 43q-30 30 -60 49h183l-1 -13q0 -25 19 -47l37 -42l18 22l20 26q13 16 17.5 27.5t4.5 26.5h183z" />
    <glyph glyph-name="Z" unicode="Z" horiz-adv-x="475" 
d="M438 750l-284 -657h171q31 0 57 6t52 22v-121h-403v43l261 615h-119q-16 0 -24 -1t-27 -7.5t-43 -19.5v120h359z" />
    <glyph glyph-name="bracketleft" unicode="[" horiz-adv-x="327" 
 />
    <glyph glyph-name="backslash" unicode="\" horiz-adv-x="481" 
 />
    <glyph glyph-name="bracketright" unicode="]" horiz-adv-x="327" 
 />
    <glyph glyph-name="asciicircum" unicode="^" horiz-adv-x="380" 
d="M355 372h-94l-72 79l-70 -79h-94l133 150h65zM328 384l-112 126h-52l-112 -126h61l77 87l77 -87h61z" />
    <glyph glyph-name="underscore" unicode="_" horiz-adv-x="254" 
d="M254 -179h-254v90h254v-90zM242 -167v66h-230v-66h230z" />
    <glyph glyph-name="grave" unicode="`" horiz-adv-x="300" 
d="M253 601h-92l-116 149h100z" />
    <glyph glyph-name="a" unicode="a" horiz-adv-x="530" 
d="M475 0h-136q14 20 18 46l2 42v140h-218v-43l-1 -44q0 -52 4.5 -86t15.5 -55h-140q15 21 21 44q7 21 7 44v113q0 130 54 258.5t148 207.5q98 85 194 85h13l18 -2q-11 -20 -15 -41l-4 -44v-577q0 -24 4 -45.5t15 -42.5zM359 321v320q-52 -27 -98 -90q-40 -54 -70 -122
q-25 -59 -35 -108h203z" />
    <glyph glyph-name="b" unicode="b" horiz-adv-x="536" 
d="M517 408q0 -94 -75 -193q-70 -91 -180 -153t-208 -62q14 20 18 46l2 42v574v19v13q-2 7 -2 10q-4 26 -18 46h292q54 0 86 -18q40 -22 40 -75q0 -31 -16.5 -54t-51.5 -38q46 -12 79.5 -55t33.5 -102zM364 638q0 11 -9 17t-24 6h-160v-50h160q14 0 23.5 8t9.5 19zM409 396
q0 52 -35 87t-88 35h-115v-382q47 11 102.5 50.5t93.5 92.5q42 60 42 117z" />
    <glyph glyph-name="c" unicode="c" 
d="M494 -6q-116 28 -218 95q-109 73 -170 172q-68 112 -68 240q0 109 66 182t165 73l56 -1l88 -5v-131q-36 23 -64 32t-65 9q-63 0 -103.5 -45.5t-40.5 -119.5q0 -104 66 -200q57 -82 145 -136q83 -49 143 -49v-116z" />
    <glyph glyph-name="d" unicode="d" horiz-adv-x="560" 
d="M522 258q0 -122 -57.5 -190t-152.5 -68h-258q14 20 18 46l2 42v579v19v13q-2 7 -2 10q-4 27 -18 48q104 -9 214 -81t179 -181q75 -116 75 -237zM423 257q0 111 -82 218q-76 100 -170 132v-509h124q56 0 92 40t36 119z" />
    <glyph glyph-name="e" unicode="e" horiz-adv-x="517" 
d="M491 0h-437q14 20 18 46l2 42v574v19v13q-2 7 -2 10q-4 26 -18 46h395v-124l-39 21q-18 6 -49 6h-190v-40h250v-97h-250v-419h232q34 0 57 10l31 17v-124z" />
    <glyph glyph-name="f" unicode="f" horiz-adv-x="474" 
d="M449 626q-27 16 -39 20q-18 7 -49 7h-190v-40h238v-97h-238v-428q0 -27 7 -45q4 -12 8 -20.5t12 -22.5h-144q14 20 18 46l2 42v574v19v13q-2 7 -2 10q-4 26 -18 46h395v-124z" />
    <glyph glyph-name="g" unicode="g" horiz-adv-x="573" 
d="M522 -12q-200 55 -338 198q-146 152 -146 333q0 108 64.5 169.5t166.5 61.5h172v-136q-76 46 -149 46q-63 0 -108.5 -40.5t-45.5 -112.5q0 -101 87 -217q82 -107 177 -149v319v19v13q-2 7 -2 10q-4 26 -18 46h135q-11 -20 -16 -47l-2 -41v-368q0 -33 12 -72z" />
    <glyph glyph-name="h" unicode="h" horiz-adv-x="566" 
d="M512 750q-11 -18 -16 -42l-4 -46v-574q0 -24 4 -45.5t15 -42.5h-136q14 20 18 46l2 42v409q-13 14 -26 21t-29 7q-21 0 -64 -17q-23 -9 -40 -9l-34 3q-17 3 -31 9v-423q0 -24 4 -45.5t15 -42.5h-136q14 20 18 46l2 42v574v19v13q-2 7 -2 10q-4 26 -18 46h137
q-12 -19 -16 -41l-4 -47v-58l23 -11l25 -3q21 0 47 8q54 19 74 19q35 0 55 -16v61v19v13q-2 7 -2 10q-4 26 -18 46h137z" />
    <glyph glyph-name="i" unicode="i" horiz-adv-x="245" 
d="M190 0h-136q14 20 18 46l2 42v574v19v13q-2 7 -2 10q-4 26 -18 46h136q-11 -21 -15 -43l-4 -45v-574q0 -24 4 -45.5t15 -42.5z" />
    <glyph glyph-name="j" unicode="j" horiz-adv-x="446" 
d="M422 750q-11 -21 -15 -43l-4 -45v-286q0 -114 -58 -203q-51 -81 -142 -129q-85 -44 -177 -44v126l29 -9l28 -3q87 0 152 77q71 85 71 218v253v19v13q-2 7 -2 10q-4 26 -18 46h136z" />
    <glyph glyph-name="k" unicode="k" horiz-adv-x="520" 
d="M513 750l-68 -52l-47 -41l-159 -137l55 -114l81 -170l57 -119l36 -60l43 -57h-168l1 13v9q0 31 -5 53.5t-13 37.5l-155 322v-347l3 -42q3 -17 14 -46h-132q11 22 16 50l2 38v574v17q0 9 -2.5 28t-15.5 43h132q-3 -6 -7.5 -22t-6.5 -24l-3 -42v-82l64 59l53 50
q10 9 13 21.5t3 39.5h209z" />
    <glyph glyph-name="l" unicode="l" horiz-adv-x="460" 
d="M444 0h-390q14 20 18 46l2 42v574v19v13q-2 7 -2 10q-4 26 -18 46h144q-27 -48 -27 -88v-565h185q40 0 88 27v-124z" />
    <glyph glyph-name="m" unicode="m" horiz-adv-x="691" 
d="M681 0h-156q13 22 17.5 45.5t4.5 42.5l-43 558l-162 -134l-155 131l-43 -555q0 -13 1 -20t3.5 -19.5t6 -23t11.5 -25.5h-156q18 26 27.5 47.5t9.5 41.5l19 214l19 232l8 127v19v13q-2 7 -2 10q-4 26 -18 46h167q3 -14 10 -25l15 -20l77 -73l83 72q18 16 29 46h168
q-12 -18 -17 -40l-3 -48l7 -128l17 -229l18 -216q0 -19 10 -40z" />
    <glyph glyph-name="n" unicode="n" horiz-adv-x="563" 
d="M508 0h-136q14 20 18 46l2 42v183l-221 308v-491q0 -24 4 -45.5t15 -42.5h-136q14 20 18 46l2 42v574v19v13q-2 7 -2 10q-4 26 -18 46h156q-3 -9 -5 -28q0 -15 4.5 -27.5t10.5 -20.5l65 -92l63 -88l44 -61v229v19v13q-2 7 -2 10q-4 26 -18 46h136q-11 -21 -15 -43l-4 -45
v-574q0 -24 4 -45.5t15 -42.5z" />
    <glyph glyph-name="o" unicode="o" horiz-adv-x="670" 
d="M641 378q0 -174 -84 -276t-229 -102q-135 0 -217 99t-82 264q0 188 80.5 288t227.5 100q143 0 223.5 -97.5t80.5 -275.5zM545 386q0 122 -55 198q-58 79 -159 79t-156 -88q-50 -80 -50 -206q0 -116 52 -193q57 -84 154 -84q102 0 161 90q53 82 53 204z" />
    <glyph glyph-name="p" unicode="p" horiz-adv-x="499" 
d="M484 680q0 -48 -33 -96l-253 -377v165l22 32l56 82l72 106l13 24q6 14 6 26t-8 15.5t-30 3.5h-158v-573q0 -24 4 -45.5t15 -42.5h-136q14 20 18 46l2 42v574v19v13q-2 7 -2 10q-4 26 -18 46h341q41 0 65 -17t24 -53z" />
    <glyph glyph-name="q" unicode="q" horiz-adv-x="565" 
d="M543 41l-85 -65l-53 54q-50 -36 -127 -36q-125 0 -188 101q-52 86 -52 217q0 54 7 102.5t22 103.5q32 110 85 174q60 73 135 73q71 0 129 -71q25 -31 46 -73t36 -96q29 -101 29 -201q0 -58 -12 -113t-39 -105zM428 324q0 117 -44 231t-103 114q-62 0 -105 -125
q-39 -113 -39 -238q0 -87 34 -146q40 -70 110 -70q17 0 29 4l28 10l-122 131l68 59l117 -115q12 27 20 70q3 15 5 37.5t2 37.5z" />
    <glyph glyph-name="r" unicode="r" 
d="M514 0h-156q4 7 8 23l3 24l-3 28l-7 23l-39 99l-36 97l-24 65l-89 -118v-153q0 -24 4 -45.5t15 -42.5h-136q14 20 18 46l2 42v574v19v13q-2 7 -2 10q-4 26 -18 46h326q41 0 65 -17t24 -53q0 -23 -9 -42.5t-13 -26t-17 -24.5l-53 -74l-44 -59l25 -73l46 -132l49 -138
q10 -26 29 -60q7 -12 12.5 -21.5t19.5 -29.5zM332 642q0 12 -8 15.5t-30 3.5h-123v-257l39 51l52 70l51 68l14 25q5 13 5 24z" />
    <glyph glyph-name="s" unicode="s" horiz-adv-x="496" 
d="M475 216q0 -102 -68.5 -164.5t-167.5 -62.5q-44 0 -75.5 7.5t-45.5 12t-37.5 15t-75.5 39.5l79 110q24 -38 66 -61q22 -10 44 -16t45 -6q57 0 93.5 33.5t36.5 98.5q0 39 -15 71t-43 65q-21 22 -58 55l-73 64q-19 18 -34 35.5t-25 32.5q-24 39 -24 81q0 69 43 106
q38 32 99 32q44 0 76.5 -9t70.5 -33l-63 -86l-35 24q-17 10 -37 10q-52 0 -52 -40q0 -25 47 -70l95 -87q20 -18 36 -36q13 -14 29 -34q31 -40 50 -86t19 -101z" />
    <glyph glyph-name="t" unicode="t" horiz-adv-x="480" 
d="M485 767q0 -46 -36.5 -78.5t-83.5 -32.5h-80v-568q0 -24 4 -45.5t15 -42.5h-136q14 20 18 46l2 42v571h-91q-38 0 -88 -27v118h383q18 0 27 1t28 6z" />
    <glyph glyph-name="u" unicode="u" horiz-adv-x="563" 
d="M510 -9q-116 25 -232 126q-104 91 -172 213t-68 218v26.5t4 34.5t5 28.5t7 15.5q7 16 10 33l4 30l-1 17q0 8 -4 17h159q-38 -42 -58 -78q-24 -45 -24 -94q0 -85 41 -176q36 -78 98 -147q57 -63 113 -91v498v19v13q-2 7 -2 10q-4 26 -18 46h136q-11 -21 -15 -43l-4 -45
v-580q0 -27 3.5 -46.5t17.5 -44.5z" />
    <glyph glyph-name="v" unicode="v" horiz-adv-x="464" 
d="M463 750q-14 -17 -25 -47l-13 -44l-34 -173l-41 -207l-35 -168l-5 -30l-4 -39q0 -25 7 -42h-173q5 8 8 25l3 30q0 19 -2 28l-4 28l-30 163l-41 210l-35 175q-6 33 -16 54q-9 23 -22 37h155q-7 -13 -12 -35l-4 -43l1 -19l2 -16l24 -123l39 -198q24 -121 26 -143l25 139
l40 202l25 123l4 41q0 23 -3.5 41t-11.5 31h152z" />
    <glyph glyph-name="w" unicode="w" horiz-adv-x="657" 
d="M663 750l-14 -20t-15 -26q-11 -23 -16 -45l-117 -548l-4 -26l-2 -30l3 -30q2 -11 3 -14.5t5 -10.5h-156l5 20l2 24l-3 35q0 7 -2 16t-4 16l-23 129l-23 -129l-6 -32l-3 -36q0 -25 7 -43h-156q5 8 8 25l3 30q0 19 -2 28l-4 28l-110 548q-3 20 -16 45q-9 22 -29 46h162
q-7 -13 -12 -35l-4 -43l1 -19l2 -17l24 -128l58 -332l53 256l-67 318h98l4 -23l13 -92l20 115h96l-70 -319l49 -256q4 32 25 132l42 201l27 133l2 31q0 23 -3.5 43t-12.5 35h162z" />
    <glyph glyph-name="x" unicode="x" horiz-adv-x="486" 
d="M475 0h-157l6 19l1 24q0 18 -2 28l-7 23l-37 93l-36 99l-36 -100l-37 -93q-9 -20 -9 -51q0 -25 7 -42h-157q20 22 37 52l21 44l122 306l-99 258q-5 15 -10 25q-1 2 -12 19q-14 24 -36 46h154l-5 -18l-1 -19q0 -26 9 -49l54 -146l53 146q7 25 7 50l-2 18q-2 12 -5 18h155
q-20 -22 -36 -45.5t-23 -44.5l-99 -257l121 -307l21 -43q7 -12 17 -26t21 -27z" />
    <glyph glyph-name="y" unicode="y" horiz-adv-x="452" 
d="M465 750q-18 -8 -53 -38l-46 -44l-50 -55l-43 -51v-474q0 -24 4 -45.5t15 -42.5h-136q14 20 18 46l2 42v469l-44 50l-48 51l-40 43q-30 30 -60 49h183l-1 -13q0 -25 19 -47l37 -42l18 22l20 26q13 16 17.5 27.5t4.5 26.5h183z" />
    <glyph glyph-name="z" unicode="z" horiz-adv-x="475" 
d="M438 750l-284 -657h171q31 0 57 6t52 22v-121h-403v43l261 615h-119q-16 0 -24 -1t-27 -7.5t-43 -19.5v120h359z" />
  </font>
</defs>
</svg>
